<?xml version="1.0" encoding="UTF-8" standalone="no"?>
<!-- Created with Inkscape (http://www.inkscape.org/) -->

<svg
   xmlns:dc="http://purl.org/dc/elements/1.1/"
   xmlns:cc="http://creativecommons.org/ns#"
   xmlns:rdf="http://www.w3.org/1999/02/22-rdf-syntax-ns#"
   xmlns:svg="http://www.w3.org/2000/svg"
   xmlns="http://www.w3.org/2000/svg"
   xmlns:xlink="http://www.w3.org/1999/xlink"
   xmlns:sodipodi="http://sodipodi.sourceforge.net/DTD/sodipodi-0.dtd"
   xmlns:inkscape="http://www.inkscape.org/namespaces/inkscape"
   width="442.80792"
   height="450.04358"
   id="svg2"
   version="1.1"
   inkscape:version="0.48.2 r9819"
   sodipodi:docname="logo_alt.svg"
   inkscape:export-filename="/Users/elise/Documents/cc/img/icons/logo_alt.png"
   inkscape:export-xdpi="65.040001"
   inkscape:export-ydpi="65.040001">
  <defs
     id="defs4">
    <linearGradient
       id="linearGradient3847">
      <stop
         style="stop-color:#ffffff;stop-opacity:0.42745098"
         offset="0"
         id="stop3849" />
      <stop
         style="stop-color:#c60000;stop-opacity:0;"
         offset="1"
         id="stop3851" />
    </linearGradient>
    <linearGradient
       inkscape:collect="always"
       id="linearGradient3806">
      <stop
         style="stop-color:#f0f2eb;stop-opacity:1;"
         offset="0"
         id="stop3808" />
      <stop
         style="stop-color:#f0f2eb;stop-opacity:0;"
         offset="1"
         id="stop3810" />
    </linearGradient>
    <linearGradient
       inkscape:collect="always"
       xlink:href="#linearGradient3806"
       id="linearGradient3812"
       x1="181.94606"
       y1="332.32281"
       x2="327.98456"
       y2="332.32281"
       gradientUnits="userSpaceOnUse" />
    <linearGradient
       inkscape:collect="always"
       xlink:href="#linearGradient3847"
       id="linearGradient3853"
       x1="423.65091"
       y1="203.78709"
       x2="369.78"
       y2="154.12883"
       gradientUnits="userSpaceOnUse" />
  </defs>
  <sodipodi:namedview
     id="base"
     pagecolor="#ffffff"
     bordercolor="#666666"
     borderopacity="1.0"
     inkscape:pageopacity="0.0"
     inkscape:pageshadow="2"
     inkscape:zoom="0.7"
     inkscape:cx="240.43829"
     inkscape:cy="219.00599"
     inkscape:document-units="px"
     inkscape:current-layer="layer1"
     showgrid="false"
     fit-margin-top="0"
     fit-margin-left="0"
     fit-margin-right="0"
     fit-margin-bottom="0"
     inkscape:window-width="1436"
     inkscape:window-height="856"
     inkscape:window-x="4"
     inkscape:window-y="0"
     inkscape:window-maximized="1" />
  <metadata
     id="metadata7">
    <rdf:RDF>
      <cc:Work
         rdf:about="">
        <dc:format>image/svg+xml</dc:format>
        <dc:type
           rdf:resource="http://purl.org/dc/dcmitype/StillImage" />
        <dc:title></dc:title>
      </cc:Work>
    </rdf:RDF>
  </metadata>
  <g
     inkscape:label="Layer 1"
     inkscape:groupmode="layer"
     id="layer1"
     transform="translate(-33.561374,-103.68315)">
    <g
       id="g5788"
       transform="translate(-3.5083008e-6,0)">
      <path
         sodipodi:nodetypes="ccccccccccccccccc"
         inkscape:connector-curvature="0"
         id="path4860"
         d="M 374.2974,401.85101 161.3284,214.34723 c -8.84422,-4.27716 -4.9306,-31.42848 -13.92711,-46.32257 0,0 -34.94483,-31.30057 -43.76442,-22.25497 l 21.52879,28.68815 c -4.00703,13.60761 -10.5775,23.65003 -31.094415,24.7011 L 69.674624,167.48509 c -5.883025,1.34558 -2.646486,51.47891 9.841489,56.56141 12.276818,8.29899 47.830297,5.72063 56.532147,13.43528 l 227.44578,191.96751 c 24.55375,27.50465 3.10385,34.90525 15.73427,47.45693 0,0 35.8042,28.6095 46.99565,21.73442 l -23.92028,-26.24756 c 3.45701,-15.37546 17.03508,-20.8117 27.15115,-17.89971 l 23.38498,23.74796 c 7.81285,-9.94423 -8.13247,-43.27797 -8.13247,-43.27797 -5.4264,-10.43029 -38.73079,-6.85505 -70.40994,-33.11235 z"
         style="fill:#bbbbbb;fill-opacity:1;stroke:#000000;stroke-width:0;stroke-linejoin:miter;stroke-miterlimit:4;stroke-opacity:1;stroke-dasharray:none;stroke-dashoffset:0" />
      <path
         sodipodi:nodetypes="cccc"
         inkscape:connector-curvature="0"
         id="rect3858"
         d="m 151.44471,250.55939 23.47577,-24.11986 8.13737,7.27701 -23.34318,23.91325"
         style="fill:#3c3e50;fill-opacity:1;stroke:#000000;stroke-width:0;stroke-miterlimit:4;stroke-opacity:1;stroke-dasharray:none" />
      <path
         style="fill:#3c3e50;fill-opacity:1;stroke:#000000;stroke-width:0;stroke-linejoin:miter;stroke-miterlimit:4;stroke-opacity:1;stroke-dasharray:none;stroke-dashoffset:0"
         d="m 352.72999,207.34576 c -0.5753,-71.9715 63.26223,-80.00914 63.26223,-80.00914 42.27135,-0.85881 37.60676,-22.65347 37.60676,-22.65347 6.98945,50.66132 -12.25077,58.82173 -16.47328,77.99424 1.59927,17.59966 -36.22331,57.57036 -66.2725,43.59975"
         id="path4802"
         inkscape:connector-curvature="0"
         sodipodi:nodetypes="ccccc" />
      <path
         style="fill:#bbbbbb;fill-opacity:1;stroke:#000000;stroke-width:0;stroke-linejoin:miter;stroke-miterlimit:4;stroke-opacity:1;stroke-dasharray:none;stroke-dashoffset:0"
         d="M 124.15355,490.96838 352.83742,207.30293 c 8.57824,-7.34067 26.31778,10.67854 20.01552,17.79964 L 129.80042,499.73414 c 0,0 -8.1391,1.61931 -5.64687,-8.76576 z"
         id="path4800"
         inkscape:connector-curvature="0"
         sodipodi:nodetypes="ccscc" />
      <path
         style="fill:#3c3e50;fill-opacity:1;stroke:#000000;stroke-width:0;stroke-linejoin:miter;stroke-miterlimit:4;stroke-opacity:1;stroke-dasharray:none;stroke-dashoffset:0"
         d="m 325.88154,240.9063 9.85574,-12.56403 c 0,0 16.06011,0.33003 18.81232,17.48942 l -11.08931,12.527 c 0,0 0.61245,-17.8752 -17.57875,-17.45239 z"
         id="path4837"
         inkscape:connector-curvature="0"
         sodipodi:nodetypes="ccccc" />
      <path
         style="fill:none;stroke:#000000;stroke-width:0;stroke-linejoin:miter;stroke-miterlimit:4;stroke-opacity:1;stroke-dasharray:none;stroke-dashoffset:0"
         d="M 374.2974,401.85101 161.3284,214.34723 c -8.84422,-4.27716 -4.9306,-31.42848 -13.92711,-46.32257 0,0 -34.94483,-31.30057 -43.76442,-22.25497 l 21.52879,28.68815 c -4.00703,13.60761 -10.5775,23.65003 -31.094415,24.7011 L 69.674624,167.48509 c -5.883025,1.34558 -2.646486,51.47891 9.841489,56.56141 12.276818,8.29899 47.830297,5.72063 56.532147,13.43528 l 227.44578,191.96751 c 24.55375,27.50465 3.10385,34.90525 15.73427,47.45693 0,0 35.8042,28.6095 46.99565,21.73442 l -23.92028,-26.24756 c 3.45701,-15.37546 17.03508,-20.8117 27.15115,-17.89971 l 23.38498,23.74796 c 7.81285,-9.94423 -8.13247,-43.27797 -8.13247,-43.27797 -5.4264,-10.43029 -38.73079,-6.85505 -70.40994,-33.11235 z"
         id="path3861"
         inkscape:connector-curvature="0"
         sodipodi:nodetypes="ccccccccccccccccc" />
      <path
         transform="matrix(0.4353297,0,0,0.42904039,123.76932,131.393)"
         d="m 540,476.64789 c 0,125.44753 -101.69532,227.14285 -227.14285,227.14285 -125.44754,0 -227.142856,-101.69532 -227.142856,-227.14285 0,-125.44754 101.695316,-227.14285 227.142856,-227.14285 C 438.30468,249.50504 540,351.20035 540,476.64789 z"
         sodipodi:ry="227.14285"
         sodipodi:rx="227.14285"
         sodipodi:cy="476.64789"
         sodipodi:cx="312.85715"
         id="path2985"
         style="fill:#3c3e50;fill-opacity:1;stroke:none"
         sodipodi:type="arc" />
      <rect
         rx="26.613424"
         ry="41.416256"
         y="298.01456"
         x="36.693363"
         height="82.832512"
         width="437.39606"
         id="rect3391"
         style="fill:#3c3e50;fill-opacity:1;stroke:#fff600;stroke-width:0;stroke-linecap:round;stroke-linejoin:round;stroke-miterlimit:4;stroke-opacity:1;stroke-dasharray:none" />
      <text
         transform="scale(0.98745272,1.0127067)"
         sodipodi:linespacing="80.000001%"
         id="text3771"
         y="361.65256"
         x="254.49937"
         style="font-size:72.55578613px;font-style:normal;font-variant:normal;font-weight:bold;font-stretch:normal;text-align:center;line-height:80.00000119%;writing-mode:lr-tb;text-anchor:middle;fill:#bbbbbb;fill-opacity:1;stroke:#000000;stroke-width:0;stroke-miterlimit:4;stroke-opacity:1;stroke-dasharray:none;font-family:League Gothic;-inkscape-font-specification:League Gothic Bold"
         xml:space="preserve"><tspan
           style="fill:#bbbbbb;fill-opacity:1;stroke:#000000;stroke-width:0;stroke-miterlimit:4;stroke-opacity:1;stroke-dasharray:none"
           id="tspan3779"
           y="361.65256"
           x="254.49937"
           sodipodi:role="line"><tspan
             style="fill:#bbbbbb;fill-opacity:1;stroke:#000000;stroke-width:0;stroke-miterlimit:4;stroke-opacity:1;stroke-dasharray:none"
             id="tspan3775"
             y="361.65256"
             x="254.49937">CODECULT</tspan></tspan></text>
    </g>
  </g>
</svg>
